<mxfile host="app.diagrams.net" modified="2021-11-13T13:10:47.881Z" agent="5.0 (Windows NT 10.0; Win64; x64) AppleWebKit/537.36 (KHTML, like Gecko) Chrome/95.0.4638.69 Safari/537.36" etag="BV33FtShTmB4803oBsaD" compressed="false" version="15.7.3" type="github">
  <diagram id="_-MqyW4Q1VzwtjQZQQiM" name="第 1 页">
    <mxGraphModel dx="886" dy="477" grid="1" gridSize="10" guides="1" tooltips="1" connect="1" arrows="1" fold="1" page="1" pageScale="1" pageWidth="827" pageHeight="1169" math="0" shadow="0">
      <root>
        <mxCell id="0" />
        <mxCell id="1" parent="0" />
        <mxCell id="5mchCgbg-qBCtX31tOW3-7" style="edgeStyle=orthogonalEdgeStyle;rounded=0;orthogonalLoop=1;jettySize=auto;html=1;exitX=1;exitY=0.5;exitDx=0;exitDy=0;entryX=0;entryY=0.5;entryDx=0;entryDy=0;" edge="1" parent="1" source="5mchCgbg-qBCtX31tOW3-4" target="5mchCgbg-qBCtX31tOW3-2">
          <mxGeometry relative="1" as="geometry" />
        </mxCell>
        <mxCell id="5mchCgbg-qBCtX31tOW3-4" value="监控项" style="rounded=0;whiteSpace=wrap;html=1;" vertex="1" parent="1">
          <mxGeometry x="350" y="220" width="85" height="40" as="geometry" />
        </mxCell>
        <mxCell id="5mchCgbg-qBCtX31tOW3-2" value="数据中心" style="rounded=0;whiteSpace=wrap;html=1;" vertex="1" parent="1">
          <mxGeometry x="470" y="210" width="120" height="60" as="geometry" />
        </mxCell>
        <mxCell id="5mchCgbg-qBCtX31tOW3-6" style="edgeStyle=orthogonalEdgeStyle;rounded=0;orthogonalLoop=1;jettySize=auto;html=1;entryX=0;entryY=0.5;entryDx=0;entryDy=0;" edge="1" parent="1" source="5mchCgbg-qBCtX31tOW3-3" target="5mchCgbg-qBCtX31tOW3-4">
          <mxGeometry relative="1" as="geometry" />
        </mxCell>
        <mxCell id="5mchCgbg-qBCtX31tOW3-3" value="数据采集器" style="rounded=0;whiteSpace=wrap;html=1;" vertex="1" parent="1">
          <mxGeometry x="230" y="215" width="80" height="50" as="geometry" />
        </mxCell>
        <mxCell id="5mchCgbg-qBCtX31tOW3-15" style="edgeStyle=orthogonalEdgeStyle;rounded=0;orthogonalLoop=1;jettySize=auto;html=1;exitX=1;exitY=0.5;exitDx=0;exitDy=0;" edge="1" parent="1" source="5mchCgbg-qBCtX31tOW3-8">
          <mxGeometry relative="1" as="geometry">
            <mxPoint x="230" y="240" as="targetPoint" />
          </mxGeometry>
        </mxCell>
        <mxCell id="5mchCgbg-qBCtX31tOW3-8" value="Shell采集器" style="rounded=0;whiteSpace=wrap;html=1;" vertex="1" parent="1">
          <mxGeometry x="100" y="240" width="80" height="30" as="geometry" />
        </mxCell>
        <mxCell id="5mchCgbg-qBCtX31tOW3-10" value="&lt;span style=&quot;color: rgba(0, 0, 0, 0); font-family: monospace; font-size: 0px; font-style: normal; font-weight: 400; letter-spacing: normal; text-indent: 0px; text-transform: none; word-spacing: 0px; background-color: rgb(248, 249, 250); display: inline; float: none;&quot;&gt;&amp;nbsp;&lt;/span&gt;" style="text;whiteSpace=wrap;html=1;" vertex="1" parent="1">
          <mxGeometry x="140" y="220" width="30" height="30" as="geometry" />
        </mxCell>
        <mxCell id="5mchCgbg-qBCtX31tOW3-14" style="edgeStyle=orthogonalEdgeStyle;rounded=0;orthogonalLoop=1;jettySize=auto;html=1;exitX=1;exitY=0.5;exitDx=0;exitDy=0;entryX=0;entryY=0.5;entryDx=0;entryDy=0;" edge="1" parent="1" source="5mchCgbg-qBCtX31tOW3-13" target="5mchCgbg-qBCtX31tOW3-3">
          <mxGeometry relative="1" as="geometry" />
        </mxCell>
        <mxCell id="5mchCgbg-qBCtX31tOW3-13" value="JMX采集器" style="rounded=0;whiteSpace=wrap;html=1;" vertex="1" parent="1">
          <mxGeometry x="100" y="190" width="80" height="30" as="geometry" />
        </mxCell>
        <mxCell id="5mchCgbg-qBCtX31tOW3-16" value="&lt;span style=&quot;color: rgba(0, 0, 0, 0); font-family: monospace; font-size: 0px; font-style: normal; font-weight: 400; letter-spacing: normal; text-indent: 0px; text-transform: none; word-spacing: 0px; background-color: rgb(248, 249, 250); display: inline; float: none;&quot;&gt;&amp;nbsp;&lt;/span&gt;" style="text;whiteSpace=wrap;html=1;" vertex="1" parent="1">
          <mxGeometry x="130" y="300" width="30" height="30" as="geometry" />
        </mxCell>
        <mxCell id="5mchCgbg-qBCtX31tOW3-17" value="&lt;span style=&quot;color: rgba(0, 0, 0, 0); font-family: monospace; font-size: 0px; font-style: normal; font-weight: 400; letter-spacing: normal; text-indent: 0px; text-transform: none; word-spacing: 0px; background-color: rgb(248, 249, 250); display: inline; float: none;&quot;&gt;&amp;nbsp;&lt;/span&gt;" style="text;whiteSpace=wrap;html=1;" vertex="1" parent="1">
          <mxGeometry x="110" y="290" width="30" height="30" as="geometry" />
        </mxCell>
        <mxCell id="5mchCgbg-qBCtX31tOW3-19" style="edgeStyle=orthogonalEdgeStyle;rounded=0;orthogonalLoop=1;jettySize=auto;html=1;exitX=1;exitY=0.5;exitDx=0;exitDy=0;entryX=0;entryY=0.5;entryDx=0;entryDy=0;" edge="1" parent="1" source="5mchCgbg-qBCtX31tOW3-18" target="5mchCgbg-qBCtX31tOW3-3">
          <mxGeometry relative="1" as="geometry" />
        </mxCell>
        <mxCell id="5mchCgbg-qBCtX31tOW3-18" value="Java采集器（接口）" style="rounded=0;whiteSpace=wrap;html=1;" vertex="1" parent="1">
          <mxGeometry x="96.25" y="290" width="87.5" height="30" as="geometry" />
        </mxCell>
      </root>
    </mxGraphModel>
  </diagram>
</mxfile>
